<svg xmlns="http://www.w3.org/2000/svg" width="53.363" height="69.788" viewBox="0 0 53.363 69.788"><defs><style>.a{fill:#fff;}</style></defs><g transform="translate(0 0)"><path class="a" d="M53.778,29.671,50.513,10.115a1.025,1.025,0,1,0-2.022.338l3.265,19.555a4.2,4.2,0,0,1,.057.688V64.273a3.47,3.47,0,0,1-3.466,3.466H6.016A3.47,3.47,0,0,1,2.55,64.273V30.7a4.189,4.189,0,0,1,.057-.688L7.114,3.016A1.153,1.153,0,0,1,8.255,2.05H46.108a1.153,1.153,0,0,1,1.141.966l.571,3.424A1.025,1.025,0,0,0,49.843,6.1l-.572-3.424A3.2,3.2,0,0,0,46.108,0H8.255A3.2,3.2,0,0,0,5.092,2.678L.585,29.671A6.237,6.237,0,0,0,.5,30.7V64.273a5.522,5.522,0,0,0,5.516,5.516H48.347a5.522,5.522,0,0,0,5.516-5.516V30.7A6.236,6.236,0,0,0,53.778,29.671Zm0,0" transform="translate(-0.5)"/><path class="a" d="M112.966,43.449H93.731a5.044,5.044,0,1,0,0,10.087h19.235a5.044,5.044,0,0,0,0-10.087Zm0,8.037H93.731a2.994,2.994,0,1,1,0-5.987h19.235a2.994,2.994,0,0,1,0,5.987Zm0,0" transform="translate(-76.667 -37.527)"/></g></svg>