<svg xmlns="http://www.w3.org/2000/svg" width="25.825" height="32.9" viewBox="0 0 25.825 32.9"><defs><style>.a{fill:#fff;}</style></defs><path class="a" d="M80.857,18.94a13.051,13.051,0,0,0-.3-1.9,12.822,12.822,0,0,0-.645-2,1.187,1.187,0,0,0-1.1-.731h-.993l-.493-1.374a1.208,1.208,0,0,0-1.155-.861H73.963l1.094-4.927c0-.012,0-.024.007-.036a.074.074,0,0,1,.073-.063h2.478a.7.7,0,0,0,.7-.7V5.179a.7.7,0,0,0-.7-.7h-.787a.482.482,0,1,0,0,.963h.519v.637H75.137a1.043,1.043,0,0,0-1.024.869l-1.137,5.121H71.956l1.363-5.8c0-.013.006-.026.008-.04a.925.925,0,0,1,.91-.785h.352a.482.482,0,0,0,0-.963h-.352a1.9,1.9,0,0,0-1.86,1.586l-1.41,6H65.292V7.742a3.83,3.83,0,0,0,1.3-.832,9.938,9.938,0,0,0,2.64.393,6.625,6.625,0,0,0,.828-.05.938.938,0,0,0,.495-1.644l-.374-.318-1.106-.942-1.5-1.28L66.02,1.745,64.756.668c-.178-.152-.349-.314-.531-.461A.585.585,0,0,0,63.7.016a1.166,1.166,0,0,0-.424.273L61.84,1.514,59.744,3.3l-1.89,1.61-.823.7a.938.938,0,0,0,.495,1.644,6.624,6.624,0,0,0,.827.05,9.937,9.937,0,0,0,2.637-.392A3.691,3.691,0,0,0,62.3,7.76v.835a.482.482,0,0,0,.963,0V7.98a4.627,4.627,0,0,0,.542.033,4.351,4.351,0,0,0,.525-.033v4.094H63.261V10.811a.482.482,0,1,0-.963,0v1.263H59.8a1.208,1.208,0,0,0-1.155.861l-.493,1.373H57.005a1.2,1.2,0,0,0-1.125.791,14.154,14.154,0,0,0-.612,2.5c0,.021-.006.042-.009.062a15.333,15.333,0,0,0-.183,2.332A12.928,12.928,0,0,0,74.313,31.258a.482.482,0,1,0-.471-.84,11.965,11.965,0,0,1-17.8-10.428q0-.135,0-.271a4.6,4.6,0,0,0,1.665.312,4.549,4.549,0,0,0,3.32-1.422.149.149,0,0,1,.213,0,4.588,4.588,0,0,0,6.641,0,.149.149,0,0,1,.213,0,4.588,4.588,0,0,0,6.641,0,.149.149,0,0,1,.213,0,4.591,4.591,0,0,0,4.985,1.11q0,.14,0,.282a11.92,11.92,0,0,1-4.318,9.2.482.482,0,1,0,.615.742A12.88,12.88,0,0,0,80.9,20c0-.35-.014-.706-.043-1.062ZM69.888,6.3A8.413,8.413,0,0,1,66.8,5.967L65.338,2.725l-.218-.482Zm-9.1-.338A8.424,8.424,0,0,1,57.7,6.3l4.768-4.061Zm2.082.963a2.618,2.618,0,0,1-1.159-.665l1.6-3.54.486-1.075.87,1.924,1.216,2.688a3.2,3.2,0,0,1-3.014.667Zm-3.309,6.317q.006-.016.011-.033a.242.242,0,0,1,.232-.176H76.174a.242.242,0,0,1,.232.176q0,.017.011.033l.382,1.062H59.177Zm18.711,5.821a3.594,3.594,0,0,1-2.623-1.124,1.113,1.113,0,0,0-1.607,0,3.625,3.625,0,0,1-5.248,0,1.113,1.113,0,0,0-1.607,0,3.625,3.625,0,0,1-5.247,0,1.113,1.113,0,0,0-1.607,0,3.627,3.627,0,0,1-4.229.75c.026-.277.059-.553.1-.825h0a13.249,13.249,0,0,1,.588-2.447.229.229,0,0,1,.218-.15h21.81a.23.23,0,0,1,.212.137,11.832,11.832,0,0,1,.815,3.068c.006.045.011.09.016.134q0,.043.009.086a3.624,3.624,0,0,1-1.6.371Z" transform="translate(-55.075 -0.002)"/></svg>