<svg xmlns="http://www.w3.org/2000/svg" width="46.965" height="30.766" viewBox="0 0 46.965 30.766"><defs><style>.a{fill:#f5f5f5;}.b{fill:#ff4b55;}.c{fill:#41479b;}</style></defs><g transform="translate(0 -88.3)"><path class="a" d="M46.158,119.066H.807A.808.808,0,0,1,0,118.259V89.107A.808.808,0,0,1,.807,88.3H46.149a.808.808,0,0,1,.807.807v29.151A.8.8,0,0,1,46.158,119.066Z"/><g transform="translate(0 88.3)"><path class="b" d="M46.158,375.652H.807A.808.808,0,0,1,0,374.845V370.8H46.965v4.045A.808.808,0,0,1,46.158,375.652Z" transform="translate(0 -344.887)"/><path class="b" d="M.807,88.3H46.149a.808.808,0,0,1,.807.807v4.045H0V89.107A.808.808,0,0,1,.807,88.3Z" transform="translate(0 -88.3)"/></g><rect class="c" width="46.965" height="11.338" transform="translate(0 98.014)"/></g></svg>